<?xml version="1.0" encoding="UTF-8"?><svg id="Layer_2" xmlns="http://www.w3.org/2000/svg" viewBox="0 0 12.92 8"><defs><style>.cls-1{fill:#007daf;}.cls-1,.cls-2{stroke-width:0px;}.cls-2{fill:#fff;}</style></defs><g id="bom_summary"><path class="cls-1" d="M6.46,0C2.89,0,0,3.2,0,4s2.89,4,6.46,4,6.46-3.2,6.46-4S10.03,0,6.46,0ZM10.39,5.79c-.88.65-2.28,1.41-3.93,1.41s-3.05-.77-3.93-1.41c-1.04-.76-1.58-1.5-1.72-1.79.14-.28.68-1.02,1.72-1.79.88-.65,2.28-1.41,3.93-1.41s3.05.77,3.93,1.41c1.04.76,1.58,1.5,1.72,1.79-.14.28-.68,1.02-1.72,1.79Z"/><path class="cls-1" d="M6.46.8c-1.57,0-2.85,1.21-2.85,2.7s1.28,2.7,2.85,2.7,2.85-1.21,2.85-2.7-1.28-2.7-2.85-2.7Z"/><path class="cls-2" d="M4.39,4.16c-.78-1.56,1.22-3.44,2.74-2.5-1.27.67-1.92,1.21-2.74,2.5h0Z"/></g></svg>