<?xml version="1.0" encoding="UTF-8"?><svg id="Layer_2" xmlns="http://www.w3.org/2000/svg" viewBox="0 0 15 11.33"><defs><style>.cls-1{fill-rule:evenodd;}.cls-1,.cls-2{fill:#ff9600;stroke-width:0px;}</style></defs><g id="bom_summary"><path class="cls-1" d="M7.66,7.89c.23.23.23.59,0,.83l-.99.33-.17-.17.33-.99c.24-.22.6-.22.84.01h0ZM12.23,1.82l-5.82,5.83-.73,2.21,2.22-.73,5.82-5.82"/><path class="cls-1" d="M14.86,1.51l-.83-.83c-.19-.19-.48-.19-.67,0l-.82.82,1.49,1.48.82-.82c.2-.17.2-.47.01-.65h0Z"/><path class="cls-2" d="M11.33,2.1V.63c0-.35-.28-.63-.63-.63H.63c-.35,0-.63.28-.63.63v10.07c0,.35.28.63.63.63h10.07c.35,0,.63-.28.63-.63v-4.19l-.76.76v3.31H.76V.76h9.82v2.1l.76-.76Z"/><rect class="cls-2" x="2.45" y="3.52" width="5.87" height=".81"/><rect class="cls-2" x="2.45" y="5.26" width="4.31" height=".81"/><rect class="cls-2" x="2.45" y="7" width="2.7" height=".81"/></g></svg>