<?xml version="1.0" encoding="UTF-8"?><svg id="Layer_2" xmlns="http://www.w3.org/2000/svg" viewBox="0 0 12.75 12.75"><defs><style>.cls-1{fill:none;stroke:#ff0096;stroke-miterlimit:10;stroke-width:.75px;}.cls-2{fill:#ff0096;stroke-width:0px;}</style></defs><g id="bom_summary"><rect class="cls-1" x=".38" y=".38" width="12" height="12" rx=".5" ry=".5"/><path class="cls-2" d="M9.5,7.85c.6-.01,1.21-.05,1.81-.19-.6-.14-1.21-.18-1.81-.19-.01-.6-.05-1.21-.19-1.81-.14.6-.18,1.21-.19,1.81-.6.01-1.21.05-1.81.19.6.14,1.21.18,1.81.19.01.6.05,1.21.19,1.81.14-.6.18-1.21.19-1.81Z"/><path class="cls-2" d="M6.4,8.02c-.08-.31-.17-.57-.28-.78-.11-.21-.24-.38-.4-.5s-.36-.2-.61-.24c.45-.1.79-.3,1.02-.6.23-.29.35-.65.35-1.06s-.09-.74-.28-1-.43-.45-.74-.57c-.31-.12-.66-.18-1.04-.18H1.94v6.57h.88v-2.78h1.54c.25,0,.45.05.6.15.15.1.27.24.36.44.09.19.17.42.23.69l.38,1.51h.9l-.43-1.65ZM4.32,6.15h-1.49v-2.32h1.52c.41,0,.73.1.94.31.22.21.33.49.33.86,0,.24-.06.45-.17.62-.12.17-.27.3-.47.4s-.41.14-.65.14Z"/></g></svg>