<?xml version="1.0" encoding="UTF-8"?><svg id="Layer_2" xmlns="http://www.w3.org/2000/svg" viewBox="0 0 15 15.67"><defs><style>.cls-1{fill:#fff;}.cls-2{fill:#ff0096;}</style></defs><g id="grn_x5F_entry_x5F_supplier"><path class="cls-2" d="M15,14.52l-3.04-3.03c1.09-1.22,1.75-2.82,1.75-4.59,0-3.81-3.07-6.89-6.86-6.89S0,3.09,0,6.89s3.07,6.89,6.86,6.89c1.45,0,2.78-.45,3.89-1.22l3.1,3.1,1.15-1.15Z"/><path class="cls-1" d="M12.55,6.89c0,3.16-2.55,5.72-5.69,5.72S1.17,10.05,1.17,6.89,3.72,1.18,6.86,1.18s5.69,2.56,5.69,5.72Z"/><path class="cls-2" d="M4.84,4.21h4.85c-.29.35-.45.54-.48.56h-1.3c.18.16.3.45.36.69h1.38s.03,0,.03.02c-.31.36-.47.55-.47.55h-.9c-.02.19-.13.41-.34.68-.28.27-.54.44-.79.52-.47.18-.92.27-1.35.27h0s.11.14.32.34l2.39,2.27v.11s0,.02-.03.02h-1.05c-1.9-1.74-2.84-2.61-2.84-2.62v-.55c.18.02.37.03.6.03,1.06,0,1.72-.27,1.98-.81.04-.08.06-.16.06-.25h-2.88s-.02,0-.02-.02c.32-.36.48-.55.49-.55h2.29c-.13-.22-.38-.47-.76-.58-.27-.07-.51-.1-.73-.1h-1.28v-.02c.31-.36.47-.54.48-.54Z"/></g></svg>