<?xml version="1.0" encoding="UTF-8"?><svg id="Layer_2" xmlns="http://www.w3.org/2000/svg" viewBox="0 0 18 15.75"><defs><style>.cls-1{fill:#ff0096;}</style></defs><g id="grn_x5F_entry_x5F_supplier"><rect class="cls-1" x="8.36" y="11.77" width="1.28" height="1.3"/><path class="cls-1" d="M17.82,13.71L10.16.67c-.25-.42-.68-.67-1.16-.67s-.92.25-1.16.67L.19,13.71c-.25.42-.25.93,0,1.36.24.43.68.68,1.16.68h15.31c.49,0,.92-.25,1.16-.68.25-.42.25-.93,0-1.36ZM17.04,14.59c-.05.08-.16.22-.37.22H1.35c-.23,0-.34-.13-.39-.22s-.11-.25,0-.44L8.62,1.11c.11-.19.29-.22.38-.22s.27.03.38.22l7.66,13.03s0,0,0,0c.1.18.05.33,0,.43Z"/><rect class="cls-1" x="8.4" y="4.85" width="1.2" height="5.46"/></g></svg>