<?xml version="1.0" encoding="UTF-8"?><svg id="Layer_2" xmlns="http://www.w3.org/2000/svg" viewBox="0 0 9 11.7"><defs><style>.cls-1{fill:#007daf;}</style></defs><g id="grn_x5F_entry_x5F_supplier"><path class="cls-1" d="M8.14.61c-.57-.41-1.36-.61-2.35-.61h-2.58c-1,0-1.78.2-2.35.61-.57.41-.86.97-.86,1.69v5.4c0,.73.29,1.29.86,1.7.57.4,1.36.61,2.35.61h2.14l1.27,1.47c.13.15.33.23.62.23h.98c.11,0,.19-.02.24-.07.05-.05.04-.11-.02-.19l-1.35-1.58c.41-.1.77-.26,1.06-.47.57-.41.86-.97.86-1.69V2.3c0-.72-.28-1.28-.86-1.69ZM7.42,7.65c0,.9-.61,1.35-1.82,1.35h-2.21c-1.2,0-1.8-.45-1.8-1.35V2.35c0-.9.6-1.35,1.8-1.35h2.21c1.21,0,1.82.45,1.82,1.35v5.3Z"/></g></svg>