<?xml version="1.0" encoding="UTF-8"?><svg id="Layer_2" xmlns="http://www.w3.org/2000/svg" viewBox="0 0 15.5 15.5"><defs><style>.cls-1{fill:#ff0096;stroke-width:0px;}.cls-2{fill:none;stroke:#ff0096;stroke-miterlimit:10;stroke-width:.5px;}</style></defs><g id="muc_modal"><path class="cls-1" d="M5.89,7.87l-.14-.24v-.09c.82-.62,1.44-1.07,1.89-1.33.45-.26.8-.39,1.05-.39.11,0,.21.05.29.15.08.1.12.22.12.37,0,.2-.04.45-.11.76-.07.31-.22.88-.45,1.74-.4,1.47-.59,2.32-.59,2.55,0,.06.02.12.06.17.04.05.08.07.13.07.14,0,.5-.21,1.09-.64h.08s.15.28.15.28l-.03.09c-.32.23-.7.49-1.14.78-.44.29-.76.48-.95.55-.19.07-.35.11-.5.11-.18,0-.31-.07-.4-.2s-.13-.3-.13-.51.03-.45.08-.71c.05-.27.17-.73.34-1.38.38-1.46.57-2.32.57-2.58,0-.13-.05-.19-.16-.19-.17,0-.57.22-1.19.66h-.1ZM8.03,3.72c0-.28.09-.52.27-.72s.41-.3.68-.3c.24,0,.42.07.56.22.14.14.21.33.21.56,0,.28-.08.53-.25.76-.16.22-.39.34-.69.34-.28,0-.48-.08-.6-.24-.12-.16-.18-.36-.18-.6Z"/><rect class="cls-2" x=".25" y=".25" width="15" height="15" rx=".5" ry=".5"/></g></svg>
