<?xml version="1.0" encoding="UTF-8"?><svg id="Layer_2" xmlns="http://www.w3.org/2000/svg" viewBox="0 0 12.5 18"><defs><style>.cls-1{fill:#fa0096;}</style></defs><g id="vbp_x5F_modal_x5F_s2"><path class="cls-1" d="M12.15,7.7c-.46-.5-1.2-.49-1.68-.13-.02-1-1.12-1.69-2-1.13-.05.03-.09.06-.14.1-.02-.48-.28-.92-.72-1.14-.45-.23-1-.17-1.4.14.01-.58.02-1.15-.02-1.72-.07-.91-1.02-1.51-1.87-1.16-.57.24-.83.78-.84,1.37,0,1.07,0,2.13,0,3.2,0,.78,0,1.56,0,2.34-.16-.23-.33-.46-.49-.69-.34-.48-.65-1.09-1.24-1.27-.97-.31-1.93.57-1.73,1.55.08.4.38.75.61,1.09,1.28,1.88,2.55,3.75,3.8,5.66.15.23.3.46.45.69.08.12.14.21.3.22.38.04.79,0,1.17,0h2.42c.23,0,.71.09.9-.07.16-.13.26-.41.34-.59.67-1.52,2.49-3.3,2.49-4.94,0-.62,0-1.23,0-1.85,0-.58.09-1.21-.34-1.67ZM9.32,16.41s0,0,0,0c-.02.03-.02.02,0,0ZM10.09,15.14c-.19.26-.28.45-.54,1.02-.03.06-.06.2-.18.18-1.73,0-1.71,0-3.43,0h-.64c-.77-1.17-1.53-2.34-2.32-3.5-.62-.92-1.25-1.83-1.87-2.75-.15-.22-.31-.44-.46-.67-.47-.75.3-1.73,1.13-1.27.4.22.68.82.94,1.17.27.38.54.76.81,1.14,0,0,0,0,0,0,.09.13.29.13.39.01.01-.01.02-.03.03-.04,0,0,0,0,0,0,.03-.04.04-.09.02-.15v-5.69c0-.22-.01-.45,0-.68.06-1.13,1.69-1.13,1.74,0,.04.84,0,1.7,0,2.54v.13c-.03.34,0,.69,0,1.01,0,.6,0,1.21,0,1.81,0,.08,0,.16,0,.24,0,.31.49.31.49,0,0-.08,0-.16,0-.24,0,0,0,0,0,0v-2.79s0-.04,0-.06c.02-.51.49-.92,1-.8.4.09.64.45.64.84,0,.31,0,.63,0,.94,0,0,0,.02,0,.02,0,.21,0,.42,0,.63,0,.04,0,.08,0,.12v1.74c0,.31.49.31.49,0,0-.86.01-1.73.01-2.6.01-.1.04-.21.09-.31.22-.39.72-.55,1.12-.32.28.16.42.45.42.76,0,.32,0,.65,0,.97,0,.13,0,.27,0,.4,0,.05,0,.1,0,.14v1.54c0,.31.49.31.49,0,0-.7,0-1.41,0-2.11.05-.64.81-1.02,1.3-.53.28.27.21.66.23,1.01.04,1.15.22,2.06-.11,3-.2.59-.5,1.16-.8,1.62-.55.85-.93,1.38-1.01,1.49Z"/><path class="cls-1" d="M10.57,16.77c0,.67-.55,1.23-1.23,1.23h-4.04c-.68,0-1.23-.55-1.23-1.23s.55-1.23,1.23-1.23h4.04c.68,0,1.23.55,1.23,1.23Z"/><path class="cls-1" d="M5.11,1.3V.19C5.11.09,5.02,0,4.91,0c-.1,0-.19.08-.19.19v1.11c0,.1.09.2.19.19.1,0,.19-.08.19-.19h0Z"/><path class="cls-1" d="M6.83,2.18c.23-.23.46-.46.69-.69.03-.03.06-.06.1-.1.07-.07.08-.2,0-.27-.08-.07-.2-.08-.27,0l-.69.69-.1.1c-.07.07-.08.2,0,.27.08.07.2.08.27,0h0Z"/><path class="cls-1" d="M2.2,1.39c.23.23.46.46.69.69.03.03.06.06.1.1.07.07.2.08.27,0,.07-.08.08-.2,0-.27l-.69-.69-.1-.1c-.07-.07-.2-.08-.27,0-.07.08-.08.2,0,.27h0Z"/></g></svg>




