<?xml version="1.0" encoding="UTF-8"?><svg id="Layer_2" xmlns="http://www.w3.org/2000/svg" viewBox="0 0 19 21"><defs><style>.cls-1{fill:#c8c8c8;}.cls-1,.cls-2,.cls-3{stroke-width:0px;}.cls-2{fill:#c8c8c8;}.cls-3{fill:#c8c8c8;}</style></defs><g id="item_master_MUC"><path class="cls-2" d="M5.13,13.44c-.08,0-.12-.03-.12-.11v-5.64c0-.08.03-.11.12-.11h2.29c.44,0,.79.12,1.04.36.25.24.37.59.37,1.03v3.09c0,.44-.13.78-.37,1.02-.25.24-.6.37-1.04.37h-2.29ZM5.83,8.4v4.28l1.46.05c.47,0,.72-.25.72-.73v-3.01c0-.48-.25-.73-.71-.73h-1.41l-.05.14Z"/><path class="cls-1" d="M.93,13.51c-.23-.42-.42-.87-.57-1.33-.14-.44-.24-.89-.3-1.34-.06-.46-.08-.94-.05-1.41v-.13s.05-.4.05-.4l.05-.32.04-.21c.04-.17.05-.26.08-.36.11-.45.27-.93.47-1.4.4-.92.96-1.78,1.65-2.56.72-.8,1.55-1.47,2.47-2.01.94-.54,1.97-.92,3.06-1.14.68-.13,1.37-.2,2.06-.2.4,0,.81.02,1.2.07.8.1,1.57.28,2.3.56l.07.03.91-1.35,2.21,5.57-5.63-.51.87-1.28-.1-.05c-.41-.2-.84-.37-1.29-.49-.63-.17-1.29-.25-1.96-.25-.16,0-.32,0-.47.01-.86.05-1.69.24-2.47.56-.8.33-1.55.79-2.23,1.37-.69.59-1.27,1.27-1.74,2.03-.24.41-.45.81-.6,1.2-.03.08-.15.41-.15.41l-.12.38-.08.33-.03.16c-.09.44-.14.88-.15,1.33,0,.44.02.89.1,1.34.08.48.2.94.36,1.39Z"/><path class="cls-3" d="M2.37,15.43l5.63.51-.87,1.28.1.05c.41.2.84.37,1.29.49.63.17,1.29.25,1.96.25.16,0,.31,0,.47-.01.86-.05,1.69-.24,2.47-.56.8-.33,1.55-.79,2.23-1.37.69-.59,1.27-1.27,1.74-2.03.24-.4.45-.81.6-1.2.03-.08.15-.42.15-.42l.12-.38.08-.32.03-.16c.09-.43.14-.88.15-1.33,0-.44-.02-.89-.1-1.34-.08-.48-.2-.94-.36-1.39.23.42.42.87.57,1.33.14.44.24.89.3,1.34.06.46.08.94.05,1.41v.13s-.05.4-.05.4l-.05.36-.03.18c-.03.15-.05.25-.08.36-.11.45-.27.93-.47,1.4-.4.92-.96,1.78-1.65,2.56-.72.8-1.55,1.48-2.47,2.01-.94.54-1.97.92-3.06,1.14-.68.13-1.37.2-2.06.2-.4,0-.81-.02-1.2-.07-.8-.09-1.57-.28-2.3-.56l-.07-.03-.91,1.35-2.21-5.57Z"/><path class="cls-2" d="M11.56,13.49c-.44,0-.8-.13-1.04-.37-.25-.25-.37-.6-.37-1.04v-4.44c0-.08.03-.12.12-.12h.59c.08,0,.12.03.12.12v4.41c0,.49.25.74.72.74h.77c.48,0,.73-.26.73-.74v-4.41c0-.08.03-.12.12-.12h.59c.11,0,.13.05.13.11v4.45c0,.44-.13.8-.38,1.04-.25.25-.6.37-1.05.37h-1.04Z"/></g></svg>